<?xml version="1.0" encoding="utf-8"?>
<!-- Generator: Adobe Illustrator 24.1.2, SVG Export Plug-In . SVG Version: 6.00 Build 0)  -->
<svg version="1.1" id="Camada_1" xmlns="http://www.w3.org/2000/svg" xmlns:xlink="http://www.w3.org/1999/xlink" x="0px" y="0px"
	 viewBox="0 0 216 216" style="enable-background:new 0 0 216 216;" xml:space="preserve">
<style type="text/css">
	.st0{fill:none;stroke:#1D1D1B;stroke-width:0.1604;stroke-dasharray:1.2835,0.9626;}
	.st1{opacity:0.5;fill-rule:evenodd;clip-rule:evenodd;fill:#2A3444;}
</style>
<g>
	<rect x="-0.07" class="st0" width="216.07" height="216.11"/>
	<path class="st1" d="M179.7,154.85c-14.67-10.44-37.17-4.89-51.19-23.48c0,0-5.22-5.87,6.52-20.22s12.72-37.18,9.78-54.79
		c-2.93-17.61-19.56-29.35-36.84-29.35S74.05,38.75,71.12,56.36c-2.93,17.61-1.96,40.44,9.78,54.79s6.52,20.22,6.52,20.22
		c-14.02,18.59-36.52,13.04-51.19,23.48c-14.67,10.43-11.09,34.24-11.09,34.24h82.82h82.82
		C190.78,189.09,194.37,165.29,179.7,154.85z"/>
</g>
</svg>
